<?xml version="1.0" encoding="utf-8"?>
<!-- Generator: Adobe Illustrator 22.0.0, SVG Export Plug-In . SVG Version: 6.00 Build 0)  -->
<svg version="1.1" id="Layer_1" xmlns="http://www.w3.org/2000/svg" xmlns:xlink="http://www.w3.org/1999/xlink" x="0px" y="0px"
	 viewBox="0 0 18 17.8" style="enable-background:new 0 0 18 17.8;" xml:space="preserve">
<style type="text/css">
	.st0{fill:#FEC80A;}
</style>
<circle class="st0" cx="9" cy="8.9" r="8.6"/>
<g>
	<path d="M11.5,12.5h-5v-1l1.8-1.8c0.5-0.5,0.9-0.9,1-1.1s0.3-0.4,0.4-0.6s0.1-0.4,0.1-0.6c0-0.3-0.1-0.5-0.2-0.6S9.2,6.5,8.9,6.5
		c-0.3,0-0.5,0.1-0.8,0.2C7.8,6.8,7.6,7,7.3,7.2l-0.8-1C6.8,6,7.1,5.8,7.3,5.6s0.5-0.2,0.8-0.3C8.4,5.3,8.7,5.3,9,5.3
		c0.4,0,0.8,0.1,1.2,0.2s0.6,0.4,0.8,0.7s0.3,0.6,0.3,1c0,0.3-0.1,0.6-0.2,0.9S10.8,8.7,10.6,9s-0.7,0.7-1.3,1.3l-0.9,0.9v0.1h3.1
		V12.5z"/>
</g>
</svg>
