<?xml version="1.0" encoding="utf-8"?>
<!-- Generator: Adobe Illustrator 22.0.0, SVG Export Plug-In . SVG Version: 6.00 Build 0)  -->
<svg version="1.1" id="Layer_1" xmlns="http://www.w3.org/2000/svg" xmlns:xlink="http://www.w3.org/1999/xlink" x="0px" y="0px"
	 viewBox="0 0 18 17.8" style="enable-background:new 0 0 18 17.8;" xml:space="preserve">
<style type="text/css">
	.st0{fill:#FEC80A;}
</style>
<circle class="st0" cx="9" cy="8.9" r="8.6"/>
<g>
	<path d="M11.2,6.9c0,0.4-0.1,0.8-0.4,1.1s-0.6,0.5-1.1,0.6v0c0.6,0.1,1,0.2,1.3,0.5s0.4,0.7,0.4,1.1c0,0.7-0.2,1.2-0.7,1.6
		s-1.2,0.6-2.1,0.6c-0.8,0-1.5-0.1-2.1-0.4v-1.3c0.3,0.1,0.6,0.3,0.9,0.3s0.7,0.1,1,0.1c0.5,0,0.9-0.1,1.1-0.3s0.4-0.4,0.4-0.8
		c0-0.3-0.1-0.6-0.4-0.7S8.7,9.4,8.1,9.4H7.6V8.2h0.6c0.6,0,1-0.1,1.2-0.2s0.4-0.4,0.4-0.7c0-0.5-0.3-0.8-1-0.8
		c-0.2,0-0.5,0-0.7,0.1C7.8,6.6,7.5,6.8,7.2,6.9l-0.7-1c0.7-0.5,1.4-0.7,2.3-0.7c0.7,0,1.3,0.1,1.8,0.4S11.2,6.4,11.2,6.9z"/>
</g>
</svg>
