<svg xmlns="http://www.w3.org/2000/svg" xmlns:xlink="http://www.w3.org/1999/xlink" width="40" height="41" viewBox="0 0 40 41"><defs><path id="3roga" d="M174.82 4984.52c0 1.53-.6 1.76-1.3 1.76h-4.02v-3.3h4.28s1.04 0 1.04 1.54zm9.93 1.76c2.28 0 2.25 2.27 2.25 2.27h-4.84s.32-2.27 2.6-2.27zm-10.97 2.27s1.56-.02 1.56 2.02c0 1.72-1.16 1.9-1.77 1.92h-4.07v-3.94zm4.21-20.71c11.03 0 20 8.98 20 20.02a20.03 20.03 0 0 1-20 20.02 20.03 20.03 0 0 1 0-40.04zm3.54 15.21h6.07v-1.81h-6.07zm-3.07 7.7s.2-3.65-2.75-3.65c0 0 2.24-.17 2.24-2.8 0-2.65-1.84-3.93-4.17-3.93h-7.66v14.73h7.66s4.68.15 4.68-4.35zm11.36-.24s.84-6.4-5.12-6.4c-5.66 0-5.66 5.67-5.66 5.67s-.38 5.63 5.66 5.63c0 0 5.04.29 5.04-3.92h-2.6s.09 1.59-2.36 1.59c0 0-2.59.17-2.59-2.57z"/></defs><g><g transform="translate(-158 -4967)"><use fill="#fff" xlink:href="#3roga"/></g></g></svg>