<svg xmlns="http://www.w3.org/2000/svg" xmlns:xlink="http://www.w3.org/1999/xlink" width="40" height="41" viewBox="0 0 40 41"><defs><path id="xngza" d="M230.5 4994.18a9.77 9.77 0 0 1-2.32-6.47 30.66 30.66 0 0 0 9.99-1.26l.56 1.3a15.67 15.67 0 0 0-5.53 3.26c-1.3 1.2-2.2 2.38-2.7 3.17zm8.8-10.54a34.3 34.3 0 0 0-3.4-5.37 9.67 9.67 0 0 1 8.22 1.92 12.66 12.66 0 0 1-4.82 3.45zm.24 6.2c.75 2.1 1.43 4.5 1.94 7.2a9.72 9.72 0 0 1-9.32-1.29 13.97 13.97 0 0 1 7.38-5.9zm-10.3-4.35c-.3 0-.56 0-.78-.02a9.85 9.85 0 0 1 5.2-6.42c.67.81 2.04 2.58 3.5 5.35-2.97.89-5.95 1.1-7.76 1.1h-.15zm14.55 3.7c1.17 0 2.46.15 3.85.47a9.82 9.82 0 0 1-4.09 6.29 50.6 50.6 0 0 0-1.81-6.61c.64-.1 1.32-.15 2.01-.15zm14.21-1.33a20 20 0 1 1-40.02 0 20 20 0 0 1 40.02 0zm-7.41 0a12.6 12.6 0 1 0-25.19-.01 12.6 12.6 0 0 0 25.19 0zm-4.88-6.07c1.23 1.56 2 3.5 2.1 5.6-1.43-.3-2.78-.44-4.02-.44h-.01c-1.01 0-1.95.1-2.85.24-.21-.53-.43-1.03-.65-1.52a15.38 15.38 0 0 0 5.43-3.88z"/></defs><g><g transform="translate(-218 -4967)"><use fill="#fff" xlink:href="#xngza"/></g></g></svg>