<svg xmlns="http://www.w3.org/2000/svg" xmlns:xlink="http://www.w3.org/1999/xlink" width="40" height="41" viewBox="0 0 40 41"><defs><path id="6q59a" d="M298 4991.86a4 4 0 1 1 0-8.02 4 4 0 0 1 0 8.02zm4.9-8.9l-.02-3.85 3.35-.02h.5v3.86zm-4.9-15.12a20.03 20.03 0 0 1 0 40.04 20.03 20.03 0 0 1 0-40.04zm11.37 13.03a4.4 4.4 0 0 0-4.4-4.4h-13.95a4.4 4.4 0 0 0-4.4 4.4v13.97a4.4 4.4 0 0 0 4.4 4.4h13.95a4.4 4.4 0 0 0 4.4-4.4zm-5.16 6.99c0-.83-.16-1.62-.46-2.34h3.4v9.32c0 1.2-.98 2.18-2.18 2.18h-13.95c-1.2 0-2.18-.97-2.18-2.18v-9.32h3.4a6.24 6.24 0 0 0 5.75 8.56c3.44 0 6.22-2.8 6.22-6.22z"/></defs><g><g transform="translate(-278 -4967)"><use fill="#fff" xlink:href="#6q59a"/></g></g></svg>