<?xml version="1.0" encoding="utf-8"?>
<!-- Generator: Adobe Illustrator 22.0.0, SVG Export Plug-In . SVG Version: 6.00 Build 0)  -->
<svg version="1.1" id="Layer_1" xmlns="http://www.w3.org/2000/svg" xmlns:xlink="http://www.w3.org/1999/xlink" x="0px" y="0px"
	 viewBox="0 0 143.5 23" style="enable-background:new 0 0 143.5 23;" xml:space="preserve">
<style type="text/css">
	.st0{fill:#E94A4B;}
</style>
<g>
	<path class="st0" d="M8,12.7L5.7,15v3.7H3.1V4.3h2.7v7.4l7.1-7.4h3l-6,6.4l6.4,8h-3.1L8,12.7z"/>
	<path class="st0" d="M19.4,17.2c-1.1-1.1-1.7-2.7-1.7-4.8V4.3h2.7v8c0,2.8,1.2,4.2,3.7,4.2c2.4,0,3.6-1.4,3.6-4.2v-8h2.6v8.1
		c0,2.1-0.6,3.7-1.7,4.8c-1.1,1.1-2.6,1.7-4.6,1.7S20.5,18.3,19.4,17.2z"/>
	<path class="st0" d="M43.5,18.7l-2.9-4.2c-0.1,0-0.3,0-0.6,0h-3.2v4.2h-2.7V4.3H40c1.2,0,2.3,0.2,3.3,0.6c0.9,0.4,1.6,1,2.1,1.8
		c0.5,0.8,0.7,1.7,0.7,2.7c0,1.1-0.3,2-0.8,2.8C44.8,13,44,13.6,43,14l3.3,4.7H43.5z M42.5,7.3c-0.6-0.5-1.5-0.7-2.7-0.7h-3.1v5.7
		h3.1c1.2,0,2-0.2,2.7-0.8c0.6-0.5,0.9-1.2,0.9-2.1C43.4,8.5,43.1,7.8,42.5,7.3z"/>
	<path class="st0" d="M62.3,18.7l0-9.5l-4.7,7.9h-1.2l-4.7-7.8v9.4h-2.5V4.3h2.2l5.7,9.5l5.6-9.5h2.2l0,14.4H62.3z"/>
	<path class="st0" d="M78.1,15.4h-7.2l-1.4,3.3h-2.8l6.5-14.4h2.6l6.5,14.4h-2.8L78.1,15.4z M77.2,13.3L74.5,7l-2.7,6.3H77.2z"/>
	<path class="st0" d="M85.4,18.4c-1-0.3-1.9-0.7-2.5-1.3l0.9-2.1c0.6,0.5,1.3,0.8,2.2,1.1c0.9,0.3,1.7,0.4,2.6,0.4
		c1.1,0,1.9-0.2,2.4-0.5c0.5-0.3,0.8-0.8,0.8-1.4c0-0.4-0.1-0.8-0.4-1c-0.3-0.3-0.7-0.5-1.1-0.6c-0.5-0.2-1.1-0.3-1.9-0.5
		c-1.1-0.3-2-0.5-2.7-0.8c-0.7-0.3-1.3-0.7-1.7-1.2c-0.5-0.6-0.7-1.3-0.7-2.3c0-0.8,0.2-1.5,0.6-2.2c0.4-0.7,1.1-1.2,2-1.6
		c0.9-0.4,1.9-0.6,3.2-0.6c0.9,0,1.7,0.1,2.6,0.3c0.8,0.2,1.6,0.5,2.2,0.9L93,7.4c-0.6-0.4-1.3-0.7-2-0.8c-0.7-0.2-1.4-0.3-2-0.3
		c-1.1,0-1.8,0.2-2.4,0.5c-0.5,0.4-0.8,0.8-0.8,1.4c0,0.4,0.1,0.7,0.4,1c0.3,0.3,0.7,0.5,1.1,0.6c0.5,0.2,1.1,0.3,1.9,0.5
		c1.1,0.2,1.9,0.5,2.6,0.8c0.7,0.3,1.3,0.7,1.8,1.2c0.5,0.5,0.7,1.3,0.7,2.2c0,0.8-0.2,1.5-0.6,2.2c-0.4,0.6-1.1,1.2-2,1.5
		c-0.9,0.4-1.9,0.6-3.2,0.6C87.5,18.9,86.4,18.7,85.4,18.4z"/>
	<path class="st0" d="M109.9,4.3v14.4h-2.7v-6.2h-7.4v6.2h-2.7V4.3h2.7v5.9h7.4V4.3H109.9z"/>
	<path class="st0" d="M124.5,16.5v2.2h-10.8V4.3h10.5v2.2h-7.8v3.7h6.9v2.2h-6.9v4H124.5z"/>
	<path class="st0" d="M140.4,4.3l-6.3,14.4h-2.6l-6.3-14.4h2.9l4.8,11.1l4.8-11.1H140.4z"/>
</g>
</svg>
